<?xml version="1.0" encoding="UTF-8" standalone="no"?>
<svg
   xmlns:dc="http://purl.org/dc/elements/1.1/"
   xmlns:cc="http://creativecommons.org/ns#"
   xmlns:rdf="http://www.w3.org/1999/02/22-rdf-syntax-ns#"
   xmlns:svg="http://www.w3.org/2000/svg"
   xmlns="http://www.w3.org/2000/svg"
   xmlns:sodipodi="http://sodipodi.sourceforge.net/DTD/sodipodi-0.dtd"
   xmlns:inkscape="http://www.inkscape.org/namespaces/inkscape"
   data-name="Layer 1"
   width="1074.392"
   height="584.231"
   version="1.1"
   id="svg102"
   sodipodi:docname="404.svg"
   inkscape:version="0.92.5 (2060ec1f9f, 2020-04-08)">
  <metadata
     id="metadata108">
    <rdf:RDF>
      <cc:Work
         rdf:about="">
        <dc:format>image/svg+xml</dc:format>
        <dc:type
           rdf:resource="http://purl.org/dc/dcmitype/StillImage" />
      </cc:Work>
    </rdf:RDF>
  </metadata>
  <defs
     id="defs106" />
  <sodipodi:namedview
     pagecolor="#ffffff"
     bordercolor="#666666"
     borderopacity="1"
     objecttolerance="10"
     gridtolerance="10"
     guidetolerance="10"
     inkscape:pageopacity="0"
     inkscape:pageshadow="2"
     inkscape:window-width="1920"
     inkscape:window-height="1080"
     id="namedview104"
     showgrid="false"
     inkscape:zoom="0.93456733"
     inkscape:cx="449.80873"
     inkscape:cy="222.65974"
     inkscape:window-x="0"
     inkscape:window-y="0"
     inkscape:window-maximized="0"
     inkscape:current-layer="svg102" />
  <path
     d="M520.426 167.01c-85.944 0-147.651 55.14-147.651 183.798 0 145.813 61.707 184.41 147.65 184.41s151.328-42.273 151.328-184.41c0-151.94-65.383-183.798-151.327-183.798zm.565 319.808c-59.527 0-90.626-34.923-90.626-135.916 0-89.112 32.372-136.105 91.899-136.105s91.899 30.868 91.899 136.105c0 98.447-33.646 135.916-93.172 135.916z"
     fill="#2f2e41"
     id="path4" />
  <path
     d="M321.311 433.517h-35.534v-104.64a20.956 20.956 0 0 0-20.956-20.956h-8.326a20.956 20.956 0 0 0-20.956 20.956v104.64h-100.23a11.963 11.963 0 0 1-10.578-17.552l106.083-200.78a20.956 20.956 0 0 0-9.58-28.74l-6.263-2.957a20.956 20.956 0 0 0-27.43 9.07L58.162 434.591a28.416 28.416 0 0 0-3.357 13.396 28.416 28.416 0 0 0 28.416 28.416H235.54v66.167a25.119 25.119 0 0 0 25.119 25.12 25.119 25.119 0 0 0 25.119-25.12v-66.167h35.534a21.443 21.443 0 0 0 21.443-21.443 21.443 21.443 0 0 0-21.443-21.443zM979.308 433.517h-35.534v-104.64a20.956 20.956 0 0 0-20.956-20.956h-8.327a20.956 20.956 0 0 0-20.956 20.956v104.64h-100.23a11.963 11.963 0 0 1-10.577-17.552l106.082-200.78a20.956 20.956 0 0 0-9.58-28.74l-6.263-2.957a20.956 20.956 0 0 0-27.429 9.07L716.157 434.591a28.416 28.416 0 0 0-3.356 13.396 28.416 28.416 0 0 0 28.416 28.416h152.318v66.167a25.119 25.119 0 0 0 25.12 25.12 25.119 25.119 0 0 0 25.118-25.12v-66.167h35.535a21.443 21.443 0 0 0 21.443-21.443 21.443 21.443 0 0 0-21.443-21.443z"
     fill="#30855a"
     id="path6" />
  <path
     d="M331.114 421.264H295.58v-104.64a20.956 20.956 0 0 0-20.956-20.956h-8.327a20.956 20.956 0 0 0-20.956 20.956v104.64h-100.23a11.963 11.963 0 0 1-10.577-17.552l106.082-200.78a20.956 20.956 0 0 0-9.58-28.74l-6.263-2.957a20.956 20.956 0 0 0-27.429 9.07L67.963 422.338a28.416 28.416 0 0 0-3.356 13.396 28.416 28.416 0 0 0 28.416 28.416H245.34v66.167a25.119 25.119 0 0 0 25.12 25.119 25.119 25.119 0 0 0 25.119-25.12V464.15h35.534a21.443 21.443 0 0 0 21.443-21.443 21.443 21.443 0 0 0-21.443-21.443zM997.688 421.264h-35.535v-104.64a20.956 20.956 0 0 0-20.956-20.956h-8.326a20.956 20.956 0 0 0-20.956 20.956v104.64h-100.23a11.963 11.963 0 0 1-10.577-17.552l106.082-200.78a20.956 20.956 0 0 0-9.58-28.74l-6.263-2.957a20.956 20.956 0 0 0-27.43 9.07l-129.38 242.033a28.416 28.416 0 0 0-3.356 13.396 28.416 28.416 0 0 0 28.415 28.416h152.32v66.167a25.119 25.119 0 0 0 25.118 25.119 25.119 25.119 0 0 0 25.12-25.12V464.15h35.534a21.443 21.443 0 0 0 21.443-21.443 21.443 21.443 0 0 0-21.443-21.443zM540.03 155.982c-85.943 0-147.65 55.14-147.65 183.798 0 145.813 61.707 184.41 147.65 184.41s151.328-42.273 151.328-184.41c0-151.94-65.383-183.798-151.327-183.798zm.566 319.808c-59.527 0-90.626-34.923-90.626-135.916 0-89.112 32.372-136.105 91.899-136.105s91.899 30.868 91.899 136.105c0 98.447-33.645 135.916-93.172 135.916z"
     fill="none"
     stroke="#3f3d56"
     stroke-miterlimit="10"
     id="path8" />
  <path
     d="M540.946 369.316a4.937 4.937 0 0 1-1.32 3.392 4.339 4.339 0 0 1-3.18 1.407h-10a4.664 4.664 0 0 1-4.5-4.8 4.905 4.905 0 0 1 .82-2.74 47.02 47.02 0 0 1 6.68-.46 47.665 47.665 0 0 1 11.13 1.28 5.067 5.067 0 0 1 .37 1.92z"
     fill="#fff"
     id="path92" />
  <circle
     cx="577.946"
     cy="308.115"
     r="5"
     fill="#fff"
     id="circle96" />
</svg>
